<svg width="375" height="139" viewBox="0 0 375 139" fill="none" xmlns="http://www.w3.org/2000/svg">
<path d="M276.42 85.5387C274.187 85.5387 273.07 85.222 273.07 84.5886C273.07 84.066 273.363 83.6384 273.949 83.3058C275.01 82.7041 275.628 82.1656 275.802 81.6906C275.976 81.1996 276.063 78.9113 276.063 74.8256C276.063 70.724 275.937 68.3249 275.683 67.6281C275.446 66.9154 275.002 66.3295 274.353 65.8702C273.704 65.411 273.379 65.0389 273.379 64.7538C273.379 64.4688 273.593 64.1995 274.02 63.9462C275.018 63.3602 276.602 63.0673 278.771 63.0673C279.421 63.0673 279.927 63.289 280.292 63.7324C280.418 63.8907 280.592 64.2391 280.814 64.7776C281.052 65.3001 281.21 65.5614 281.289 65.5614C281.59 65.5456 282.057 65.3318 282.691 64.9201C284.876 63.4473 286.856 62.7109 288.629 62.7109H288.677H289.437C290.72 62.7109 291.876 63.0277 292.905 63.6611C293.934 64.2946 294.726 65.2447 295.281 66.5116C295.851 67.7785 296.136 70.5419 296.136 74.8018C296.136 79.0459 296.223 81.4213 296.397 81.9281C296.587 82.419 297.102 82.8783 297.941 83.3058C298.796 83.7334 299.224 84.1531 299.224 84.5648C299.224 85.2775 296.975 85.6338 292.478 85.6338H291.765C290.34 85.6338 289.627 85.2933 289.627 84.6123C289.627 84.4698 289.801 84.1293 290.15 83.5909C290.498 83.0366 290.736 82.4269 290.862 81.7618C290.989 81.0967 291.052 78.9113 291.052 75.2057C291.052 71.4842 290.823 69.0929 290.363 68.0319C289.73 66.575 288.677 65.8465 287.204 65.8465C286.127 65.8465 285.082 66.0999 284.069 66.6066C283.071 67.0976 282.342 67.8023 281.883 68.7208C281.44 69.6234 281.218 71.8009 281.218 75.2532C281.218 78.6896 281.313 80.7721 281.503 81.5005C281.693 82.2132 281.923 82.7912 282.192 83.2346L283.071 84.6598C283.071 85.2775 281.828 85.5863 279.341 85.5863L277.892 85.5387H276.42Z" fill="#131313"/>
<path d="M251.598 73.4963V74.3752C251.598 77.0673 252.12 79.3002 253.165 81.0739C253.656 81.9132 254.282 82.5783 255.042 83.0692C255.802 83.5601 256.57 83.8056 257.346 83.8056H257.821C259.262 83.8056 260.505 83.1088 261.551 81.7152C262.612 80.3058 263.142 78.3104 263.142 75.7291V74.0426C263.142 71.493 262.612 69.3313 261.551 67.5577C260.505 65.7682 259.175 64.8735 257.56 64.8735H256.824C255.367 64.8735 254.131 65.6574 253.118 67.2251C252.104 68.7929 251.598 70.8833 251.598 73.4963ZM268.867 73.5913V74.779C268.867 76.03 268.614 77.3999 268.107 78.8885C267.046 81.9923 264.932 84.1619 261.764 85.3971C260.387 85.9355 259.056 86.2048 257.774 86.2048H256.99C253.965 86.2048 251.439 85.1912 249.412 83.1642C248.494 82.2457 247.749 81.0343 247.179 79.5298C246.609 78.0254 246.324 76.4259 246.324 74.7315V74.3277C246.324 72.7915 246.593 71.2396 247.132 69.6718C248.177 66.6154 250.228 64.4934 253.284 63.3057C254.662 62.7673 255.984 62.498 257.251 62.498H258.439C259.848 62.498 261.234 62.8148 262.596 63.4482C265.177 64.6518 266.975 66.5679 267.988 69.1967C268.574 70.7487 268.867 72.2135 268.867 73.5913Z" fill="#131313"/>
<path d="M239.957 55.2286C239.957 55.9254 239.656 56.5747 239.054 57.1765C238.468 57.7624 237.882 58.0554 237.297 58.0554C237.17 58.087 237.067 58.1029 236.988 58.1029L236.465 58.1504C235.673 58.1504 234.961 57.8891 234.327 57.3665C233.71 56.8439 233.401 56.1709 233.401 55.3474V54.9198C233.401 54.0963 233.726 53.4075 234.375 52.8532C235.04 52.2831 235.8 51.998 236.655 51.998H236.774L237.582 52.0931C238.073 52.0931 238.579 52.3623 239.102 52.9007C239.64 53.4233 239.91 53.9538 239.91 54.4922L239.957 54.706V55.2286ZM232.403 65.823C231.58 65.4271 231.168 65.055 231.168 64.7066C231.168 64.3582 231.334 64.081 231.667 63.8752C232.823 63.1784 234.652 62.83 237.154 62.83H237.843C238.698 62.83 239.181 63.2259 239.292 64.0177C239.355 64.4453 239.387 67.3274 239.387 72.6642C239.387 77.9852 239.498 81.0415 239.719 81.8334C239.941 82.6093 240.472 83.2111 241.311 83.6387C242.15 84.0504 242.57 84.4701 242.57 84.8976C242.57 85.4994 240.606 85.8003 236.679 85.8003L235.966 85.8241H233.068C231.912 85.8241 231.334 85.539 231.334 84.9689C231.334 84.4938 231.683 84.0346 232.379 83.5912C233.092 83.1478 233.583 82.6568 233.852 82.1184C234.153 81.5325 234.304 80.1626 234.304 78.0089L234.327 77.2488V76.5124L234.351 75.396V74.6596L234.375 73.9232C234.375 70.17 234.248 67.9846 233.995 67.367C233.757 66.7336 233.227 66.2189 232.403 65.823Z" fill="#131313"/>
<path d="M225.275 75.0647C226.526 76.2524 227.151 77.7569 227.151 79.578C227.151 81.3833 226.407 82.9353 224.918 84.2338C223.43 85.5166 221.371 86.1579 218.742 86.1579H218.101C215.108 86.1579 212.827 85.7858 211.26 85.0415C210.389 84.6298 209.953 83.7113 209.953 82.286V81.6921C209.953 79.871 210.294 78.9604 210.975 78.9604C211.545 78.9604 212.218 79.4988 212.994 80.5757C213.77 81.6367 214.419 82.3493 214.942 82.7136C215.955 83.4104 217.143 83.7588 218.505 83.7588C219.882 83.7588 220.896 83.4737 221.545 82.9036C222.194 82.3177 222.519 81.5496 222.519 80.5995C222.519 79.6493 221.965 78.7704 220.856 77.9627C220.27 77.5352 218.901 76.8621 216.747 75.9436C214.609 75.0251 213.01 74.067 211.948 73.0694C210.887 72.0558 210.357 70.6306 210.357 68.7936C210.357 66.9566 211.125 65.468 212.661 64.3278C214.197 63.1718 216.09 62.5938 218.338 62.5938H218.98C221.925 62.5938 223.992 62.9421 225.18 63.6389C225.797 64.0032 226.106 65.0167 226.106 66.6795C226.106 68.3423 225.71 69.1737 224.918 69.1737C224.475 69.1737 223.865 68.6827 223.089 67.7009C222.329 66.7032 221.632 65.9985 220.999 65.5868C220.365 65.1592 219.486 64.9454 218.362 64.9454C217.254 64.9454 216.375 65.1988 215.725 65.7056C215.076 66.2123 214.751 66.9487 214.751 67.9147C214.751 68.8649 215.345 69.72 216.533 70.4802C216.834 70.686 218.148 71.2957 220.476 72.3092C222.804 73.3227 224.404 74.2412 225.275 75.0647Z" fill="#131313"/>
<path d="M203.328 55.2286C203.328 55.9254 203.027 56.5747 202.425 57.1765C201.84 57.7624 201.254 58.0554 200.668 58.0554C200.541 58.087 200.438 58.1029 200.359 58.1029L199.836 58.1504C199.044 58.1504 198.332 57.8891 197.698 57.3665C197.081 56.8439 196.772 56.1709 196.772 55.3474V54.9198C196.772 54.0963 197.097 53.4075 197.746 52.8532C198.411 52.2831 199.171 51.998 200.026 51.998H200.145L200.953 52.0931C201.444 52.0931 201.95 52.3623 202.473 52.9007C203.011 53.4233 203.281 53.9538 203.281 54.4922L203.328 54.706V55.2286ZM195.774 65.823C194.951 65.4271 194.539 65.055 194.539 64.7066C194.539 64.3582 194.705 64.081 195.038 63.8752C196.194 63.1784 198.023 62.83 200.525 62.83H201.214C202.069 62.83 202.552 63.2259 202.663 64.0177C202.726 64.4453 202.758 67.3274 202.758 72.6642C202.758 77.9852 202.869 81.0415 203.091 81.8334C203.312 82.6093 203.843 83.2111 204.682 83.6387C205.521 84.0504 205.941 84.4701 205.941 84.8976C205.941 85.4994 203.977 85.8003 200.05 85.8003L199.337 85.8241H196.439C195.283 85.8241 194.705 85.539 194.705 84.9689C194.705 84.4938 195.054 84.0346 195.751 83.5912C196.463 83.1478 196.954 82.6568 197.223 82.1184C197.524 81.5325 197.675 80.1626 197.675 78.0089L197.698 77.2488V76.5124L197.722 75.396V74.6596L197.746 73.9232C197.746 70.17 197.619 67.9846 197.366 67.367C197.128 66.7336 196.598 66.2189 195.774 65.823Z" fill="#131313"/>
<path d="M163.371 55.2286C163.371 55.9254 163.07 56.5747 162.468 57.1765C161.882 57.7624 161.297 58.0554 160.711 58.0554C160.584 58.087 160.481 58.1029 160.402 58.1029L159.879 58.1504C159.087 58.1504 158.375 57.8891 157.741 57.3665C157.124 56.8439 156.815 56.1709 156.815 55.3474V54.9198C156.815 54.0963 157.14 53.4075 157.789 52.8532C158.454 52.2831 159.214 51.998 160.069 51.998H160.188L160.996 52.0931C161.487 52.0931 161.993 52.3623 162.516 52.9007C163.054 53.4233 163.324 53.9538 163.324 54.4922L163.371 54.706V55.2286ZM155.817 65.823C154.994 65.4271 154.582 65.055 154.582 64.7066C154.582 64.3582 154.748 64.081 155.081 63.8752C156.237 63.1784 158.066 62.83 160.568 62.83H161.257C162.112 62.83 162.595 63.2259 162.706 64.0177C162.769 64.4453 162.801 67.3274 162.801 72.6642C162.801 77.9852 162.912 81.0415 163.134 81.8334C163.355 82.6093 163.886 83.2111 164.725 83.6387C165.564 84.0504 165.984 84.4701 165.984 84.8976C165.984 85.4994 164.02 85.8003 160.093 85.8003L159.38 85.8241H156.482C155.326 85.8241 154.748 85.539 154.748 84.9689C154.748 84.4938 155.097 84.0346 155.793 83.5912C156.506 83.1478 156.997 82.6568 157.266 82.1184C157.567 81.5325 157.718 80.1626 157.718 78.0089L157.741 77.2488V76.5124L157.765 75.396V74.6596L157.789 73.9232C157.789 70.17 157.662 67.9846 157.409 67.367C157.171 66.7336 156.641 66.2189 155.817 65.823Z" fill="#131313"/>
<path d="M125.653 84.4231C125.653 84.138 125.993 83.6234 126.674 82.8791C127.355 82.1189 127.775 81.3588 127.933 80.5987C128.107 79.8385 128.195 75.832 128.195 68.579C128.195 61.3261 128.028 56.9315 127.696 55.3954C127.537 54.6511 127.205 54.1048 126.698 53.7564C125.78 53.1071 125.32 52.7587 125.32 52.7112C125.32 52.1253 125.629 51.7135 126.247 51.476C127.419 51.0167 128.788 50.7871 130.356 50.7871H131.14C131.869 50.7871 132.383 51.0801 132.684 51.666C133.001 52.252 133.159 53.5426 133.159 55.538L133.135 56.4169C133.12 57.0028 133.112 57.5887 133.112 58.1747L133.064 59.9325C133.064 60.5184 133.064 61.1044 133.064 61.6903C133.064 63.7648 133.428 64.8021 134.157 64.8021C134.236 64.7863 134.64 64.62 135.368 64.3033C137.57 63.3214 139.414 62.8305 140.903 62.8305C143.69 62.8305 145.646 63.9469 146.77 66.1798C147.515 67.7001 147.887 71.4374 147.887 77.3918C147.887 79.6881 147.966 81.1213 148.124 81.6914C148.299 82.2456 148.75 82.8236 149.478 83.4254C150.223 84.0272 150.595 84.4073 150.595 84.5656C150.595 85.0565 150.27 85.3891 149.621 85.5633C148.987 85.7375 147.356 85.8246 144.728 85.8246H143.896C142.17 85.8246 141.307 85.4762 141.307 84.7794C141.307 84.621 141.513 84.2251 141.925 83.5917C142.336 82.9424 142.605 82.2139 142.732 81.4063C142.859 80.5987 142.922 78.4845 142.922 75.0639C142.922 71.6433 142.764 69.4896 142.447 68.6028C141.354 67.1775 140.143 66.3065 138.813 65.9898C136.992 65.9898 135.535 66.6391 134.442 67.9377C133.634 68.8878 133.23 71.0574 133.23 74.4463C133.23 77.8194 133.31 79.9731 133.468 80.9075C133.626 81.826 133.967 82.6653 134.489 83.4254C135.028 84.1697 135.297 84.629 135.297 84.8032C135.297 85.3733 133.69 85.6583 130.475 85.6583C127.26 85.6583 125.653 85.2466 125.653 84.4231Z" fill="#131313"/>
<path d="M112.73 83.6164C112.73 82.7137 111.962 81.1935 110.426 79.0556C109.729 78.0896 109.301 77.6066 109.143 77.6066C108.7 77.6066 108.114 78.0737 107.385 79.0081C105.96 80.8134 105.247 82.1199 105.247 82.9275C105.247 83.2442 105.366 83.656 105.604 84.1627C105.841 84.6537 105.96 84.9308 105.96 84.9941C105.96 85.5326 104.899 85.8018 102.777 85.8018L102.04 85.778H101.304C98.992 85.778 97.8359 85.4851 97.8359 84.8991C97.8359 84.4399 98.3823 83.9014 99.475 83.2838C100.568 82.6504 101.605 81.7477 102.587 80.5759C105.39 77.2186 106.791 75.2391 106.791 74.6373C106.791 73.8138 105.303 71.573 102.325 67.9149C101.708 67.1547 100.876 66.4025 99.8313 65.6582C98.8019 64.9139 98.2873 64.3992 98.2873 64.1142C98.2873 63.3857 100.584 63.0215 105.176 63.0215H105.889C107.235 63.0215 107.908 63.3461 107.908 63.9954C107.67 64.708 107.551 65.1119 107.551 65.2069C107.551 66.0937 108.042 67.226 109.024 68.6037C110.022 69.9815 110.6 70.6703 110.758 70.6703C111.186 70.6703 111.906 70.0448 112.92 68.7938C113.933 67.5269 114.44 66.6559 114.44 66.1808C114.44 65.7057 114.321 65.2465 114.084 64.8031C113.862 64.3596 113.751 64.0429 113.751 63.8529C113.751 63.3461 115.05 63.0927 117.647 63.0927C120.26 63.0927 121.566 63.4411 121.566 64.1379C121.566 64.5972 121.02 65.1039 119.927 65.6582C118.851 66.2125 117.94 66.9172 117.196 67.7723C114.456 70.9079 113.086 72.8795 113.086 73.6871C113.086 74.7482 114.884 77.3453 118.478 81.4785C119.096 82.1911 119.848 82.7929 120.735 83.2838C121.622 83.7589 122.065 84.2498 122.065 84.7566C122.065 85.3584 120.458 85.6593 117.243 85.6593L115.747 85.7068H114.25C112.952 85.7068 112.302 85.39 112.302 84.7566C112.587 84.139 112.73 83.7589 112.73 83.6164Z" fill="#131313"/>
<path d="M89.7824 70.2891V69.5527C89.7824 68.3809 89.3628 67.3278 88.5234 66.3934C87.6841 65.4433 86.6548 64.9682 85.4354 64.9682H84.9841C84.7624 64.9998 84.6119 65.0157 84.5327 65.0157C83.4242 65.0157 82.3711 65.6491 81.3734 66.916C80.3916 68.1829 79.9007 69.5369 79.9007 70.978V71.2868C79.9007 71.7935 80.2015 72.0469 80.8033 72.0469C81.0409 72.0944 81.1675 72.1182 81.1834 72.1182L81.7297 72.1419H81.8723L82.0385 72.1182L86.6231 71.8569L87.4783 71.7619C89.0144 71.7619 89.7824 71.271 89.7824 70.2891ZM79.9007 76.584C79.9007 78.3893 80.5816 79.9017 81.9435 81.121C83.3054 82.3404 85.0316 82.9501 87.1219 82.9501C87.9613 82.9501 88.7214 82.8313 89.4023 82.5938C90.0991 82.3404 90.8514 82.0395 91.659 81.6911C92.4825 81.3427 92.9972 81.1686 93.203 81.1686C93.8365 81.1686 94.1532 81.509 94.1532 82.19C94.1532 83.1085 92.9813 84.0903 90.6376 85.1355C89.1173 85.8165 87.4862 86.1569 85.7442 86.1569H85.2216C82.2444 86.1569 79.774 85.2543 77.8103 83.449C76.7493 82.4671 75.9258 81.2161 75.3398 79.6958C74.7539 78.1597 74.4609 76.5127 74.4609 74.7549L74.4847 74.2086V73.6622C74.4847 72.1419 74.8331 70.6454 75.5299 69.1727C76.2425 67.6999 77.0897 66.4884 78.0716 65.5383C80.1461 63.5429 82.6086 62.5373 85.4591 62.5215C89.7666 62.5215 92.6329 64.2001 94.0582 67.5574C94.5016 68.6184 94.7233 69.5923 94.7233 70.4791V70.9542C94.7233 72.0469 94.272 72.7833 93.3693 73.1634C92.4666 73.5276 90.3367 73.8285 86.9794 74.066C83.6222 74.3036 81.801 74.4619 81.5159 74.5411C80.4391 74.8103 79.9007 75.4913 79.9007 76.584Z" fill="#131313"/>
<path d="M170.338 68.5087H165.945C167.454 68.5087 168.896 72.9585 170.774 77.0737C172.651 81.189 173.925 85.2708 176.038 85.2708C178.121 85.2708 179.022 83.6314 181.134 79.9176C183.437 75.8693 186.79 68.3079 190.59 62.8878C191.551 61.5161 192.277 60.5458 192.568 59.7428C193.373 57.5213 190.355 58.5049 188.746 59.2744C182.174 61.4826 180.263 72.3897 177.714 76.8395C177.044 78.8737 176.317 77.6871 176.038 76.8395C175.557 75.702 174.375 72.8983 173.49 70.7838C172.604 68.6693 171.02 68.386 170.338 68.5087Z" fill="url(#paint0_linear_1687_798)"/>
<defs>
<linearGradient id="paint0_linear_1687_798" x1="183.213" y1="58.3789" x2="170.883" y2="81.9214" gradientUnits="userSpaceOnUse">
<stop stop-color="#F93AA9"/>
<stop offset="1" stop-color="#1E8CEC"/>
</linearGradient>
</defs>
</svg>
