<svg width="375" height="139" viewBox="0 0 375 139" fill="none" xmlns="http://www.w3.org/2000/svg">
<path d="M241.673 96.4105C241.673 97.593 239.646 98.1842 235.592 98.1842H233.565L231.496 98.1419C227.723 98.1419 225.119 98.0012 223.683 97.7196C222.247 97.4381 221.529 96.8328 221.529 95.9038C221.529 95.6504 221.994 94.9747 222.923 93.8767C223.88 92.7788 224.598 91.3148 225.077 89.4848C225.555 87.6549 225.795 84.4314 225.795 79.8142C225.795 75.1971 225.288 72.4381 224.274 71.5372C223.289 70.6082 219.277 70.1436 212.239 70.1436C205.229 70.1436 201.146 70.6926 199.992 71.7906C199.232 72.4944 198.852 75.2957 198.852 80.1943C198.852 85.093 199.021 88.3024 199.359 89.8227C199.725 91.343 200.203 92.5254 200.795 93.37L201.639 94.3413C202.512 95.3266 202.948 95.9038 202.948 96.0727C202.948 97.0862 202.061 97.6915 200.288 97.8886C199.499 97.973 196.332 98.0153 190.786 98.0153C185.268 98.0153 182.509 97.3818 182.509 96.1149C182.509 95.4392 183.593 94.3835 185.761 92.9477C187.197 91.9905 188.055 90.7095 188.337 89.1048C188.618 87.4719 188.759 80.687 188.759 68.7501C188.759 56.8131 188.548 49.9015 188.126 48.0153C187.703 46.129 186.648 44.7073 184.958 43.7501C183.297 42.7647 182.467 41.8638 182.467 41.0474C182.467 39.9494 185.986 39.4004 193.024 39.4004H197.121C201.062 39.4004 203.033 40.062 203.033 41.3852C203.033 41.4978 202.554 42.1594 201.597 43.37C200.64 44.5524 199.964 46.0164 199.57 47.7619C199.204 49.4792 199.021 52.3086 199.021 56.2501C199.021 60.1915 199.485 62.5986 200.414 63.4713C201.343 64.3441 205.285 64.7805 212.239 64.7805C219.221 64.7805 223.204 64.3019 224.19 63.3446C224.894 62.669 225.246 60.1774 225.246 55.87C225.246 51.5344 225.091 48.7754 224.781 47.593C224.499 46.4105 224.049 45.4111 223.43 44.5946L222.543 43.6234C221.67 42.6943 221.234 42.0749 221.234 41.7653C221.234 40.6954 222.008 40.062 223.556 39.8649C225.105 39.6678 228.554 39.5693 233.903 39.5693C239.252 39.5693 241.926 40.1464 241.926 41.3007C241.926 42.1735 241.42 42.9618 240.406 43.6656C238.126 45.214 236.887 46.2135 236.69 46.6639C236.211 47.7619 235.972 53.0828 235.972 62.6267L235.676 83.4882C235.676 87.4015 235.887 89.9212 236.31 91.0473C236.732 92.1735 237.436 93.0321 238.421 93.6234C240.589 94.9466 241.673 95.8756 241.673 96.4105Z" fill="#131313"/>
<path d="M120.896 41.4274C120.896 40.1323 124.359 39.4848 131.284 39.4848L134.916 39.4004C136.127 39.3722 137.295 39.3581 138.421 39.3581C140.561 39.3581 141.631 40.1183 141.631 41.6385L140.448 43.3699C139.998 44.0175 139.773 44.8198 139.773 45.777C139.773 46.7342 141.251 49.4088 144.207 53.8007C147.163 58.1926 148.936 60.3885 149.528 60.3885C149.978 60.3885 151.71 58.3333 154.722 54.223C157.762 50.1126 159.283 47.2129 159.283 45.5237C159.283 44.8761 158.959 43.9893 158.311 42.8632C157.664 41.7371 157.34 41.0051 157.34 40.6672C157.34 39.6537 159.494 39.147 163.801 39.147H165.575C171.318 39.147 174.19 39.7523 174.19 40.9629C174.19 41.8356 172.754 43.018 169.882 44.5101C168.137 45.4392 166.363 47.0158 164.561 49.2399C157.242 58.3897 153.582 64.4144 153.582 67.3142C153.582 67.652 154.145 68.6937 155.271 70.4392C161.493 80.0113 165.42 85.8671 167.053 88.0068C168.714 90.1464 170.178 91.6245 171.445 92.4409C174.007 94.1019 175.288 95.2703 175.288 95.946C175.288 97.2129 170.6 97.8463 161.225 97.8463H157.72C155.806 97.8463 154.849 97.3959 154.849 96.4949C154.849 96.0163 155.102 95.3547 155.609 94.5102C156.115 93.6374 156.369 93.0884 156.369 92.8632C156.369 91.0051 154.117 86.5991 149.612 79.6453C147.613 76.5484 146.262 75 145.558 75C145.136 75 143.714 76.6611 141.293 79.9831C137.239 85.5856 135.212 89.4004 135.212 91.4274C135.212 92.2438 135.536 93.2292 136.183 94.3835C136.859 95.5096 137.197 96.129 137.197 96.2416C137.197 97.3114 134.48 97.8463 129.046 97.8463H127.315C122.529 97.8463 120.136 97.3959 120.136 96.4949C120.136 95.3125 121.403 94.0879 123.936 92.821C125.682 91.9482 127.441 90.4139 129.215 88.2179C137.689 77.7449 141.926 71.1712 141.926 68.4966C141.926 67.821 141.124 66.2725 139.519 63.8514C133.382 54.589 129.652 49.2117 128.328 47.7196C127.033 46.1993 125.471 44.9465 123.641 43.9612C121.811 42.9758 120.896 42.1312 120.896 41.4274Z" fill="#131313"/>
<path d="M103.37 39.147C108.41 39.147 110.929 41.9764 110.929 47.6351C110.929 49.1273 110.606 49.8733 109.958 49.8733C109.592 49.8733 108.719 49.4651 107.34 48.6487C105.988 47.8041 104.862 47.2269 103.961 46.9172C99.9637 45.5377 96.4164 44.848 93.3195 44.848C90.2227 44.848 88.0971 45.6081 86.9428 47.1284C85.3381 49.2399 84.5357 53.125 84.5357 58.7838C84.5357 60.8108 85.2255 62.317 86.605 63.3024C87.9845 64.2877 89.5611 64.7804 91.3347 64.7804C93.1365 64.7804 94.9524 64.1751 96.7824 62.9645C98.6405 61.7258 99.5836 61.1064 99.6117 61.1064C101.019 61.1064 101.977 61.6554 102.483 62.7534C103.018 63.8514 103.286 65.6391 103.286 68.1166C103.286 72.4803 102.286 74.6622 100.287 74.6622C99.7525 74.6622 98.6405 73.9865 96.9513 72.6351C95.2621 71.2556 93.4744 70.5659 91.5881 70.5659C88.3505 70.5659 86.1968 71.2556 85.127 72.6351C84.4231 73.536 84.0712 76.2388 84.0712 80.7433C84.0712 85.2478 84.8736 88.5417 86.4783 90.625C87.3792 91.7793 89.5329 92.3564 92.9395 92.3564C96.346 92.3564 100.316 91.6244 104.848 90.1605C106.115 89.7663 107.129 89.3018 107.889 88.7669C108.649 88.232 109.423 87.6689 110.211 87.0777C111 86.4583 111.492 86.1487 111.689 86.1487C112.647 86.1487 113.125 86.6273 113.125 87.5845V88.9358C113.125 91.1036 112.745 92.8913 111.985 94.299C111.253 95.6785 110.577 96.5653 109.958 96.9595C108.804 97.6915 104.215 98.0574 96.1911 98.0574H90.6168L88.7587 98.0152C78.145 98.0152 72.0217 97.9026 70.3888 97.6774C68.7559 97.424 67.9395 96.7906 67.9395 95.777C67.9395 95.1295 68.6996 94.3131 70.2199 93.3277C71.7401 92.3424 72.7255 91.1036 73.1759 89.6115C73.6264 88.1194 73.8516 82.2776 73.8516 72.0862L74.0205 55.5743C74.0205 50.1689 73.6827 46.8187 73.007 45.5237C72.6973 44.9324 71.8246 44.2568 70.3888 43.4966C68.953 42.7365 68.2351 42.0608 68.2351 41.4696C68.2351 40.3435 69.15 39.6397 70.98 39.3581C71.7401 39.2455 77.7227 39.1892 88.9276 39.1892L101.597 39.147H103.37Z" fill="#131313"/>
<path d="M256.353 61.3395H246.082C249.61 61.3395 252.981 71.782 257.372 81.4394C261.763 91.0968 264.742 100.676 269.682 100.676C274.553 100.676 276.66 96.8285 281.599 88.1133C286.984 78.6129 294.825 60.8684 303.71 48.1489C305.959 44.9297 307.656 42.6528 308.336 40.7684C310.218 35.555 303.161 37.8633 299.398 39.6692C284.03 44.8512 279.561 70.4473 273.602 80.8898C272.034 85.6636 270.335 82.8789 269.682 80.8898C268.558 78.2203 265.793 71.6407 263.723 66.6785C261.653 61.7163 257.947 61.0516 256.353 61.3395Z" fill="url(#paint0_linear_47_2)"/>
<defs>
<linearGradient id="paint0_linear_47_2" x1="286.461" y1="37.5676" x2="257.465" y2="92.7307" gradientUnits="userSpaceOnUse">
<stop stop-color="#F93AA9"/>
<stop offset="1" stop-color="#1E8CEC"/>
</linearGradient>
</defs>
</svg>
