<svg width="1024" height="1024" viewBox="0 0 1024 1024" fill="none" xmlns="http://www.w3.org/2000/svg">
<path d="M352.108 360.181H250C285.075 360.181 318.592 463.931 362.241 559.881C405.891 655.831 435.51 751 484.616 751C533.042 751 553.987 712.776 603.093 626.188C656.622 531.798 734.574 355.501 822.899 229.128C845.252 197.145 862.125 174.523 868.886 155.801C887.593 104.004 817.443 126.938 780.029 144.88C627.256 196.365 582.827 450.67 523.588 554.42C507.999 601.849 491.111 574.182 484.616 554.42C473.443 527.898 445.955 462.527 425.377 413.226C404.8 363.925 367.957 357.321 352.108 360.181Z" fill="url(#paint0_linear_1869_684)"/>
<defs>
<linearGradient id="paint0_linear_1869_684" x1="651.419" y1="124" x2="363.439" y2="672.205" gradientUnits="userSpaceOnUse">
<stop stop-color="#F93AA9"/>
<stop offset="1" stop-color="#1E8CEC"/>
</linearGradient>
</defs>
</svg>
